ffmpeg started on 2026-01-13 at 10:55:41
Report written to "D:\Convert\FFMetrics\reports\ssim_report-6.txt"
Log level: 32
Command line:
ffmpeg -hide_banner -nostdin -r 24000/1001 -i "F:\\Convert\\files\\[DC] Make Heroine ga Oosugiru - 07_Telegram_HEVC(124).mkv" -r 24000/1001 -i "F:\\Convert\\files\\[DC] Make Heroine ga Oosugiru - 07_Telegram.mp4" -lavfi "[0:v]settb=AVTB,setpts=PTS-STARTPTS,format=pix_fmts=yuv420p10le,fps=24000/1001,scale=1920:1080:flags=lanczos:param0=3:out_range=limited:out_color_matrix=bt709:out_chroma_loc=left,setsar=1/1,setdar=(1920/1080)*(1/1),colorspace=format=yuv420p10:range=tv:primaries=bt709:trc=bt709:space=bt709:fast=0[main];[1:v]settb=AVTB,setpts=PTS-STARTPTS,format=pix_fmts=yuv420p,fps=24000/1001,scale=1920:1080:flags=lanczos:param0=3:out_range=limited:out_color_matrix=bt709:out_chroma_loc=left,setsar=1.000,setdar=1.778,colorspace=format=yuv420p:range=tv:primaries=bt709:trc=bt709:space=bt709:fast=0[ref];[main][ref]ssim=eof_action=endall:stats_file='D\\:/Convert/FFMetrics/logs/ssim_logfile-6.txt'" -f null -
Input #0, matroska,webm, from 'F:\Convert\files\[DC] Make Heroine ga Oosugiru - 07_Telegram_HEVC(124).mkv':
  Metadata:
    COMPATIBLE_BRANDS: isomiso2avc1mp41
    MAJOR_BRAND     : isom
    MINOR_VERSION   : 512
    ENCODER         : Lavf61.7.100
  Duration: 00:24:06.79, start: -0.021000, bitrate: 1025 kb/s
  Stream #0:0: Video: hevc (Main 10), yuv420p10le(tv, bt709, progressive), 1920x1080 [SAR 1:1 DAR 16:9], 23.98 fps, 23.98 tbr, 1k tbn (default)
      Metadata:
        HANDLER_NAME    : VideoHandler
        VENDOR_ID       : [0][0][0][0]
        ENCODER         : Lavc61.19.100 libx265
        BPS             : 828829
        DURATION        : 00:24:06.569708333
        NUMBER_OF_FRAMES: 34683
        NUMBER_OF_BYTES : 149869920
        _STATISTICS_WRITING_APP: mkvpropedit v94.0 ('Initiate') 64-bit
        _STATISTICS_WRITING_DATE_UTC: 2026-01-12 17:02:55
        _STATISTICS_TAGS: BPS DURATION NUMBER_OF_FRAMES NUMBER_OF_BYTES
  Stream #0:1: Audio: aac (LC), 48000 Hz, stereo, fltp (default)
      Metadata:
        HANDLER_NAME    : SoundHandler
        VENDOR_ID       : [0][0][0][0]
        ENCODER         : Lavc61.19.100 aac
        BPS             : 193194
        DURATION        : 00:24:06.784000000
        NUMBER_OF_FRAMES: 67819
        NUMBER_OF_BYTES : 34938755
        _STATISTICS_WRITING_APP: mkvpropedit v94.0 ('Initiate') 64-bit
        _STATISTICS_WRITING_DATE_UTC: 2026-01-12 17:02:55
        _STATISTICS_TAGS: BPS DURATION NUMBER_OF_FRAMES NUMBER_OF_BYTES
Input #1, mov,mp4,m4a,3gp,3g2,mj2, from 'F:\Convert\files\[DC] Make Heroine ga Oosugiru - 07_Telegram.mp4':
  Metadata:
    major_brand     : isom
    minor_version   : 512
    compatible_brands: isomiso2avc1mp41
    encoder         : Lavf60.16.100
  Duration: 00:24:06.74, start: 0.000000, bitrate: 3764 kb/s
  Stream #1:0[0x1](und): Video: h264 (High) (avc1 / 0x31637661), yuv420p(tv, bt709, progressive), 1920x1080 [SAR 1:1 DAR 16:9], 3616 kb/s, 23.98 fps, 23.98 tbr, 24k tbn (default)
      Metadata:
        handler_name    : VideoHandler
        vendor_id       : [0][0][0][0]
        encoder         : Lavc60.31.102 h264_qsv
  Stream #1:1[0x2](und): Audio: aac (HE-AACv2) (mp4a / 0x6134706D), 48000 Hz, stereo, fltp, 144 kb/s (default)
      Metadata:
        handler_name    : SoundHandler
        vendor_id       : [0][0][0][0]
Stream mapping:
  Stream #0:0 (hevc) -> settb:default
  Stream #1:0 (h264) -> settb:default
  ssim:default -> Stream #0:0 (wrapped_avframe)
  Stream #0:1 -> #0:1 (aac (native) -> pcm_s16le (native))
Output #0, null, to 'pipe:':
  Metadata:
    COMPATIBLE_BRANDS: isomiso2avc1mp41
    MAJOR_BRAND     : isom
    MINOR_VERSION   : 512
    encoder         : Lavf61.7.100
  Stream #0:0: Video: wrapped_avframe, yuv420p10le(tv, bt709, progressive), 1920x1080 [SAR 1:1 DAR 16:9], q=2-31, 200 kb/s, 23.98 fps, 23.98 tbn
      Metadata:
        encoder         : Lavc61.19.100 wrapped_avframe
  Stream #0:1: Audio: pcm_s16le, 48000 Hz, stereo, s16, 1536 kb/s (default)
      Metadata:
        HANDLER_NAME    : SoundHandler
        VENDOR_ID       : [0][0][0][0]
        _STATISTICS_TAGS: BPS DURATION NUMBER_OF_FRAMES NUMBER_OF_BYTES
        BPS             : 193194
        DURATION        : 00:24:06.784000000
        NUMBER_OF_FRAMES: 67819
        NUMBER_OF_BYTES : 34938755
        _STATISTICS_WRITING_APP: mkvpropedit v94.0 ('Initiate') 64-bit
        _STATISTICS_WRITING_DATE_UTC: 2026-01-12 17:02:55
        encoder         : Lavc61.19.100 pcm_s16le
frame=  116 fps=0.0 q=-0.0 size=N/A time=00:00:04.83 bitrate=N/A speed=9.45x    frame=  284 fps=278 q=-0.0 size=N/A time=00:00:11.84 bitrate=N/A speed=11.6x    frame=  454 fps=296 q=-0.0 size=N/A time=00:00:18.93 bitrate=N/A speed=12.4x    frame=  624 fps=303 q=-0.0 size=N/A time=00:00:26.02 bitrate=N/A speed=12.6x    frame=  781 fps=304 q=-0.0 size=N/A time=00:00:32.57 bitrate=N/A speed=12.7x    frame=  931 fps=301 q=-0.0 size=N/A time=00:00:38.83 bitrate=N/A speed=12.5x    frame= 1075 fps=297 q=-0.0 size=N/A time=00:00:44.83 bitrate=N/A speed=12.4x    frame= 1218 fps=295 q=-0.0 size=N/A time=00:00:50.80 bitrate=N/A speed=12.3x    frame= 1373 fps=295 q=-0.0 size=N/A time=00:00:57.26 bitrate=N/A speed=12.3x    frame= 1522 fps=295 q=-0.0 size=N/A time=00:01:03.48 bitrate=N/A speed=12.3x    frame= 1646 fps=290 q=-0.0 size=N/A time=00:01:08.65 bitrate=N/A speed=12.1x    frame= 1783 fps=288 q=-0.0 size=N/A time=00:01:14.36 bitrate=N/A speed=  12x    frame= 1936 fps=288 q=-0.0 size=N/A time=00:01:20.74 bitrate=N/A speed=  12x    frame= 2065 fps=286 q=-0.0 size=N/A time=00:01:26.12 bitrate=N/A speed=11.9x    frame= 2193 fps=283 q=-0.0 size=N/A time=00:01:31.46 bitrate=N/A speed=11.8x    frame= 2351 fps=285 q=-0.0 size=N/A time=00:01:38.05 bitrate=N/A speed=11.9x    frame= 2477 fps=283 q=-0.0 size=N/A time=00:01:43.31 bitrate=N/A speed=11.8x    frame= 2617 fps=282 q=-0.0 size=N/A time=00:01:49.15 bitrate=N/A speed=11.7x    frame= 2783 fps=284 q=-0.0 size=N/A time=00:01:56.07 bitrate=N/A speed=11.8x    frame= 2942 fps=285 q=-0.0 size=N/A time=00:02:02.70 bitrate=N/A speed=11.9x    frame= 3111 fps=287 q=-0.0 size=N/A time=00:02:09.75 bitrate=N/A speed=  12x    frame= 3243 fps=286 q=-0.0 size=N/A time=00:02:15.26 bitrate=N/A speed=11.9x    frame= 3412 fps=288 q=-0.0 size=N/A time=00:02:22.30 bitrate=N/A speed=  12x    frame= 3591 fps=290 q=-0.0 size=N/A time=00:02:29.77 bitrate=N/A speed=12.1x    frame= 3729 fps=289 q=-0.0 size=N/A time=00:02:35.53 bitrate=N/A speed=12.1x    frame= 3914 fps=292 q=-0.0 size=N/A time=00:02:43.24 bitrate=N/A speed=12.2x    frame= 4093 fps=294 q=-0.0 size=N/A time=00:02:50.71 bitrate=N/A speed=12.3x    frame= 4261 fps=295 q=-0.0 size=N/A time=00:02:57.71 bitrate=N/A speed=12.3x    frame= 4416 fps=295 q=-0.0 size=N/A time=00:03:04.18 bitrate=N/A speed=12.3x    frame= 4577 fps=296 q=-0.0 size=N/A time=00:03:10.89 bitrate=N/A speed=12.3x    frame= 4732 fps=296 q=-0.0 size=N/A time=00:03:17.36 bitrate=N/A speed=12.3x    frame= 4895 fps=296 q=-0.0 size=N/A time=00:03:24.16 bitrate=N/A speed=12.4x    frame= 5060 fps=297 q=-0.0 size=N/A time=00:03:31.04 bitrate=N/A speed=12.4x    frame= 5225 fps=298 q=-0.0 size=N/A time=00:03:37.92 bitrate=N/A speed=12.4x    frame= 5396 fps=298 q=-0.0 size=N/A time=00:03:45.05 bitrate=N/A speed=12.4x    frame= 5560 fps=299 q=-0.0 size=N/A time=00:03:51.89 bitrate=N/A speed=12.5x    frame= 5728 fps=300 q=-0.0 size=N/A time=00:03:58.90 bitrate=N/A speed=12.5x    frame= 5877 fps=299 q=-0.0 size=N/A time=00:04:05.11 bitrate=N/A speed=12.5x    frame= 6012 fps=298 q=-0.0 size=N/A time=00:04:10.75 bitrate=N/A speed=12.4x    frame= 6182 fps=299 q=-0.0 size=N/A time=00:04:17.84 bitrate=N/A speed=12.5x    frame= 6359 fps=300 q=-0.0 size=N/A time=00:04:25.22 bitrate=N/A speed=12.5x    frame= 6529 fps=301 q=-0.0 size=N/A time=00:04:32.31 bitrate=N/A speed=12.5x    frame= 6712 fps=302 q=-0.0 size=N/A time=00:04:39.94 bitrate=N/A speed=12.6x    frame= 6890 fps=303 q=-0.0 size=N/A time=00:04:47.37 bitrate=N/A speed=12.6x    frame= 7066 fps=304 q=-0.0 size=N/A time=00:04:54.71 bitrate=N/A speed=12.7x    frame= 7242 fps=305 q=-0.0 size=N/A time=00:05:02.05 bitrate=N/A speed=12.7x    frame= 7420 fps=305 q=-0.0 size=N/A time=00:05:09.47 bitrate=N/A speed=12.7x    frame= 7587 fps=306 q=-0.0 size=N/A time=00:05:16.44 bitrate=N/A speed=12.8x    frame= 7761 fps=307 q=-0.0 size=N/A time=00:05:23.69 bitrate=N/A speed=12.8x    frame= 7941 fps=307 q=-0.0 size=N/A time=00:05:31.20 bitrate=N/A speed=12.8x    frame= 8119 fps=308 q=-0.0 size=N/A time=00:05:38.62 bitrate=N/A speed=12.8x    frame= 8255 fps=307 q=-0.0 size=N/A time=00:05:44.30 bitrate=N/A speed=12.8x    frame= 8427 fps=308 q=-0.0 size=N/A time=00:05:51.47 bitrate=N/A speed=12.8x    frame= 8585 fps=308 q=-0.0 size=N/A time=00:05:58.06 bitrate=N/A speed=12.8x    frame= 8756 fps=308 q=-0.0 size=N/A time=00:06:05.19 bitrate=N/A speed=12.9x    frame= 8930 fps=309 q=-0.0 size=N/A time=00:06:12.45 bitrate=N/A speed=12.9x    frame= 9107 fps=309 q=-0.0 size=N/A time=00:06:19.83 bitrate=N/A speed=12.9x    frame= 9275 fps=309 q=-0.0 size=N/A time=00:06:26.84 bitrate=N/A speed=12.9x    frame= 9431 fps=309 q=-0.0 size=N/A time=00:06:33.35 bitrate=N/A speed=12.9x    frame= 9595 fps=310 q=-0.0 size=N/A time=00:06:40.19 bitrate=N/A speed=12.9x    frame= 9780 fps=310 q=-0.0 size=N/A time=00:06:47.90 bitrate=N/A speed=12.9x    frame= 9945 fps=310 q=-0.0 size=N/A time=00:06:54.78 bitrate=N/A speed=12.9x    frame=10121 fps=311 q=-0.0 size=N/A time=00:07:02.13 bitrate=N/A speed=  13x    frame=10285 fps=311 q=-0.0 size=N/A time=00:07:08.97 bitrate=N/A speed=  13x    frame=10458 fps=311 q=-0.0 size=N/A time=00:07:16.18 bitrate=N/A speed=  13x    frame=10595 fps=311 q=-0.0 size=N/A time=00:07:21.89 bitrate=N/A speed=  13x    frame=10778 fps=311 q=-0.0 size=N/A time=00:07:29.53 bitrate=N/A speed=  13x    frame=10963 fps=312 q=-0.0 size=N/A time=00:07:37.24 bitrate=N/A speed=  13x    frame=11122 fps=312 q=-0.0 size=N/A time=00:07:43.88 bitrate=N/A speed=  13x    frame=11277 fps=312 q=-0.0 size=N/A time=00:07:50.34 bitrate=N/A speed=  13x    frame=11454 fps=312 q=-0.0 size=N/A time=00:07:57.72 bitrate=N/A speed=  13x    frame=11640 fps=313 q=-0.0 size=N/A time=00:08:05.48 bitrate=N/A speed=  13x    frame=11820 fps=313 q=-0.0 size=N/A time=00:08:12.99 bitrate=N/A speed=13.1x    frame=12008 fps=314 q=-0.0 size=N/A time=00:08:20.83 bitrate=N/A speed=13.1x    frame=12189 fps=315 q=-0.0 size=N/A time=00:08:28.38 bitrate=N/A speed=13.1x    frame=12358 fps=315 q=-0.0 size=N/A time=00:08:35.43 bitrate=N/A speed=13.1x    frame=12532 fps=315 q=-0.0 size=N/A time=00:08:42.68 bitrate=N/A speed=13.1x    frame=12724 fps=316 q=-0.0 size=N/A time=00:08:50.69 bitrate=N/A speed=13.2x    frame=12857 fps=315 q=-0.0 size=N/A time=00:08:56.24 bitrate=N/A speed=13.1x    frame=13042 fps=316 q=-0.0 size=N/A time=00:09:03.96 bitrate=N/A speed=13.2x    frame=13214 fps=316 q=-0.0 size=N/A time=00:09:11.13 bitrate=N/A speed=13.2x    frame=13373 fps=316 q=-0.0 size=N/A time=00:09:17.76 bitrate=N/A speed=13.2x    frame=13523 fps=316 q=-0.0 size=N/A time=00:09:24.02 bitrate=N/A speed=13.2x    frame=13701 fps=316 q=-0.0 size=N/A time=00:09:31.44 bitrate=N/A speed=13.2x    frame=13853 fps=316 q=-0.0 size=N/A time=00:09:37.78 bitrate=N/A speed=13.2x    frame=14044 fps=316 q=-0.0 size=N/A time=00:09:45.75 bitrate=N/A speed=13.2x    frame=14219 fps=316 q=-0.0 size=N/A time=00:09:53.05 bitrate=N/A speed=13.2x    frame=14404 fps=317 q=-0.0 size=N/A time=00:10:00.76 bitrate=N/A speed=13.2x    frame=14587 fps=317 q=-0.0 size=N/A time=00:10:08.39 bitrate=N/A speed=13.2x    frame=14761 fps=317 q=-0.0 size=N/A time=00:10:15.65 bitrate=N/A speed=13.2x    frame=14920 fps=317 q=-0.0 size=N/A time=00:10:22.28 bitrate=N/A speed=13.2x    frame=15086 fps=317 q=-0.0 size=N/A time=00:10:29.21 bitrate=N/A speed=13.2x    frame=15209 fps=317 q=-0.0 size=N/A time=00:10:34.34 bitrate=N/A speed=13.2x    frame=15387 fps=317 q=-0.0 size=N/A time=00:10:41.76 bitrate=N/A speed=13.2x    frame=15581 fps=317 q=-0.0 size=N/A time=00:10:49.85 bitrate=N/A speed=13.2x    frame=15758 fps=318 q=-0.0 size=N/A time=00:10:57.23 bitrate=N/A speed=13.3x    frame=15936 fps=318 q=-0.0 size=N/A time=00:11:04.66 bitrate=N/A speed=13.3x    frame=16110 fps=318 q=-0.0 size=N/A time=00:11:11.92 bitrate=N/A speed=13.3x    frame=16274 fps=318 q=-0.0 size=N/A time=00:11:18.76 bitrate=N/A speed=13.3x    frame=16435 fps=318 q=-0.0 size=N/A time=00:11:25.47 bitrate=N/A speed=13.3x    frame=16595 fps=318 q=-0.0 size=N/A time=00:11:32.14 bitrate=N/A speed=13.3x    frame=16752 fps=318 q=-0.0 size=N/A time=00:11:38.69 bitrate=N/A speed=13.3x    frame=16910 fps=318 q=-0.0 size=N/A time=00:11:45.28 bitrate=N/A speed=13.3x    frame=17086 fps=318 q=-0.0 size=N/A time=00:11:52.62 bitrate=N/A speed=13.3x    frame=17265 fps=318 q=-0.0 size=N/A time=00:12:00.09 bitrate=N/A speed=13.3x    frame=17400 fps=318 q=-0.0 size=N/A time=00:12:05.72 bitrate=N/A speed=13.3x    frame=17561 fps=318 q=-0.0 size=N/A time=00:12:12.44 bitrate=N/A speed=13.3x    frame=17730 fps=318 q=-0.0 size=N/A time=00:12:19.48 bitrate=N/A speed=13.3x    frame=17910 fps=318 q=-0.0 size=N/A time=00:12:26.99 bitrate=N/A speed=13.3x    frame=18087 fps=318 q=-0.0 size=N/A time=00:12:34.37 bitrate=N/A speed=13.3x    frame=18259 fps=319 q=-0.0 size=N/A time=00:12:41.55 bitrate=N/A speed=13.3x    frame=18438 fps=319 q=-0.0 size=N/A time=00:12:49.01 bitrate=N/A speed=13.3x    frame=18618 fps=319 q=-0.0 size=N/A time=00:12:56.52 bitrate=N/A speed=13.3x    frame=18740 fps=318 q=-0.0 size=N/A time=00:13:01.61 bitrate=N/A speed=13.3x    frame=18887 fps=318 q=-0.0 size=N/A time=00:13:07.74 bitrate=N/A speed=13.3x    frame=19060 fps=318 q=-0.0 size=N/A time=00:13:14.96 bitrate=N/A speed=13.3x    frame=19233 fps=318 q=-0.0 size=N/A time=00:13:22.17 bitrate=N/A speed=13.3x    frame=19404 fps=319 q=-0.0 size=N/A time=00:13:29.30 bitrate=N/A speed=13.3x    frame=19570 fps=318 q=-0.0 size=N/A time=00:13:36.23 bitrate=N/A speed=13.3x    frame=19724 fps=318 q=-0.0 size=N/A time=00:13:42.65 bitrate=N/A speed=13.3x    frame=19895 fps=318 q=-0.0 size=N/A time=00:13:49.78 bitrate=N/A speed=13.3x    frame=20059 fps=318 q=-0.0 size=N/A time=00:13:56.62 bitrate=N/A speed=13.3x    frame=20229 fps=319 q=-0.0 size=N/A time=00:14:03.71 bitrate=N/A speed=13.3x    frame=20406 fps=319 q=-0.0 size=N/A time=00:14:11.10 bitrate=N/A speed=13.3x    frame=20585 fps=319 q=-0.0 size=N/A time=00:14:18.56 bitrate=N/A speed=13.3x    frame=20763 fps=319 q=-0.0 size=N/A time=00:14:25.99 bitrate=N/A speed=13.3x    frame=20941 fps=319 q=-0.0 size=N/A time=00:14:33.41 bitrate=N/A speed=13.3x    frame=21098 fps=319 q=-0.0 size=N/A time=00:14:39.96 bitrate=N/A speed=13.3x    frame=21275 fps=319 q=-0.0 size=N/A time=00:14:47.34 bitrate=N/A speed=13.3x    frame=21454 fps=320 q=-0.0 size=N/A time=00:14:54.81 bitrate=N/A speed=13.3x    frame=21628 fps=320 q=-0.0 size=N/A time=00:15:02.06 bitrate=N/A speed=13.3x    frame=21800 fps=320 q=-0.0 size=N/A time=00:15:09.24 bitrate=N/A speed=13.3x    frame=21980 fps=320 q=-0.0 size=N/A time=00:15:16.74 bitrate=N/A speed=13.3x    frame=22159 fps=320 q=-0.0 size=N/A time=00:15:24.21 bitrate=N/A speed=13.4x    frame=22337 fps=320 q=-0.0 size=N/A time=00:15:31.63 bitrate=N/A speed=13.4x    frame=22516 fps=321 q=-0.0 size=N/A time=00:15:39.10 bitrate=N/A speed=13.4x    frame=22702 fps=321 q=-0.0 size=N/A time=00:15:46.86 bitrate=N/A speed=13.4x    frame=22882 fps=321 q=-0.0 size=N/A time=00:15:54.37 bitrate=N/A speed=13.4x    frame=23073 fps=321 q=-0.0 size=N/A time=00:16:02.33 bitrate=N/A speed=13.4x    frame=23249 fps=322 q=-0.0 size=N/A time=00:16:09.67 bitrate=N/A speed=13.4x    frame=23398 fps=321 q=-0.0 size=N/A time=00:16:15.89 bitrate=N/A speed=13.4x    frame=23585 fps=322 q=-0.0 size=N/A time=00:16:23.69 bitrate=N/A speed=13.4x    frame=23766 fps=322 q=-0.0 size=N/A time=00:16:31.24 bitrate=N/A speed=13.4x    frame=23954 fps=322 q=-0.0 size=N/A time=00:16:39.08 bitrate=N/A speed=13.4x    frame=24143 fps=322 q=-0.0 size=N/A time=00:16:46.96 bitrate=N/A speed=13.4x    frame=24324 fps=323 q=-0.0 size=N/A time=00:16:54.51 bitrate=N/A speed=13.5x    frame=24507 fps=323 q=-0.0 size=N/A time=00:17:02.14 bitrate=N/A speed=13.5x    frame=24691 fps=323 q=-0.0 size=N/A time=00:17:09.82 bitrate=N/A speed=13.5x    frame=24880 fps=323 q=-0.0 size=N/A time=00:17:17.70 bitrate=N/A speed=13.5x    frame=25061 fps=324 q=-0.0 size=N/A time=00:17:25.25 bitrate=N/A speed=13.5x    frame=25241 fps=324 q=-0.0 size=N/A time=00:17:32.76 bitrate=N/A speed=13.5x    frame=25420 fps=324 q=-0.0 size=N/A time=00:17:40.22 bitrate=N/A speed=13.5x    frame=25599 fps=324 q=-0.0 size=N/A time=00:17:47.69 bitrate=N/A speed=13.5x    frame=25781 fps=324 q=-0.0 size=N/A time=00:17:55.28 bitrate=N/A speed=13.5x    frame=25924 fps=324 q=-0.0 size=N/A time=00:18:01.24 bitrate=N/A speed=13.5x    frame=26108 fps=324 q=-0.0 size=N/A time=00:18:08.92 bitrate=N/A speed=13.5x    frame=26265 fps=324 q=-0.0 size=N/A time=00:18:15.46 bitrate=N/A speed=13.5x    frame=26438 fps=324 q=-0.0 size=N/A time=00:18:22.68 bitrate=N/A speed=13.5x    frame=26615 fps=324 q=-0.0 size=N/A time=00:18:30.06 bitrate=N/A speed=13.5x    frame=26782 fps=324 q=-0.0 size=N/A time=00:18:37.03 bitrate=N/A speed=13.5x    frame=26955 fps=324 q=-0.0 size=N/A time=00:18:44.24 bitrate=N/A speed=13.5x    frame=27131 fps=324 q=-0.0 size=N/A time=00:18:51.58 bitrate=N/A speed=13.5x    frame=27308 fps=324 q=-0.0 size=N/A time=00:18:58.97 bitrate=N/A speed=13.5x    frame=27474 fps=324 q=-0.0 size=N/A time=00:19:05.89 bitrate=N/A speed=13.5x    frame=27630 fps=324 q=-0.0 size=N/A time=00:19:12.40 bitrate=N/A speed=13.5x    frame=27791 fps=324 q=-0.0 size=N/A time=00:19:19.11 bitrate=N/A speed=13.5x    frame=27968 fps=324 q=-0.0 size=N/A time=00:19:26.49 bitrate=N/A speed=13.5x    frame=28105 fps=324 q=-0.0 size=N/A time=00:19:32.21 bitrate=N/A speed=13.5x    frame=28282 fps=324 q=-0.0 size=N/A time=00:19:39.59 bitrate=N/A speed=13.5x    frame=28462 fps=324 q=-0.0 size=N/A time=00:19:47.10 bitrate=N/A speed=13.5x    frame=28648 fps=324 q=-0.0 size=N/A time=00:19:54.86 bitrate=N/A speed=13.5x    frame=28816 fps=324 q=-0.0 size=N/A time=00:20:01.86 bitrate=N/A speed=13.5x    frame=28973 fps=324 q=-0.0 size=N/A time=00:20:08.41 bitrate=N/A speed=13.5x    frame=29147 fps=324 q=-0.0 size=N/A time=00:20:15.67 bitrate=N/A speed=13.5x    frame=29323 fps=324 q=-0.0 size=N/A time=00:20:23.01 bitrate=N/A speed=13.5x    frame=29490 fps=324 q=-0.0 size=N/A time=00:20:29.97 bitrate=N/A speed=13.5x    frame=29662 fps=325 q=-0.0 size=N/A time=00:20:37.15 bitrate=N/A speed=13.5x    frame=29828 fps=325 q=-0.0 size=N/A time=00:20:44.07 bitrate=N/A speed=13.5x    frame=29992 fps=324 q=-0.0 size=N/A time=00:20:50.91 bitrate=N/A speed=13.5x    frame=30161 fps=325 q=-0.0 size=N/A time=00:20:57.96 bitrate=N/A speed=13.5x    frame=30344 fps=325 q=-0.0 size=N/A time=00:21:05.59 bitrate=N/A speed=13.5x    frame=30487 fps=324 q=-0.0 size=N/A time=00:21:11.56 bitrate=N/A speed=13.5x    frame=30665 fps=325 q=-0.0 size=N/A time=00:21:18.98 bitrate=N/A speed=13.5x    frame=30853 fps=325 q=-0.0 size=N/A time=00:21:26.82 bitrate=N/A speed=13.5x    frame=31009 fps=325 q=-0.0 size=N/A time=00:21:33.33 bitrate=N/A speed=13.5x    frame=31176 fps=325 q=-0.0 size=N/A time=00:21:40.29 bitrate=N/A speed=13.5x    frame=31347 fps=325 q=-0.0 size=N/A time=00:21:47.43 bitrate=N/A speed=13.5x    frame=31520 fps=325 q=-0.0 size=N/A time=00:21:54.64 bitrate=N/A speed=13.5x    frame=31701 fps=325 q=-0.0 size=N/A time=00:22:02.19 bitrate=N/A speed=13.5x    frame=31875 fps=325 q=-0.0 size=N/A time=00:22:09.45 bitrate=N/A speed=13.5x    frame=32046 fps=325 q=-0.0 size=N/A time=00:22:16.58 bitrate=N/A speed=13.6x    frame=32231 fps=325 q=-0.0 size=N/A time=00:22:24.30 bitrate=N/A speed=13.6x    frame=32409 fps=325 q=-0.0 size=N/A time=00:22:31.72 bitrate=N/A speed=13.6x    frame=32594 fps=325 q=-0.0 size=N/A time=00:22:39.44 bitrate=N/A speed=13.6x    frame=32724 fps=325 q=-0.0 size=N/A time=00:22:44.86 bitrate=N/A speed=13.6x    frame=32875 fps=325 q=-0.0 size=N/A time=00:22:51.16 bitrate=N/A speed=13.5x    frame=33051 fps=325 q=-0.0 size=N/A time=00:22:58.50 bitrate=N/A speed=13.6x    frame=33216 fps=325 q=-0.0 size=N/A time=00:23:05.38 bitrate=N/A speed=13.5x    frame=33369 fps=325 q=-0.0 size=N/A time=00:23:11.76 bitrate=N/A speed=13.5x    frame=33506 fps=324 q=-0.0 size=N/A time=00:23:17.47 bitrate=N/A speed=13.5x    frame=33644 fps=324 q=-0.0 size=N/A time=00:23:23.23 bitrate=N/A speed=13.5x    frame=33775 fps=324 q=-0.0 size=N/A time=00:23:28.69 bitrate=N/A speed=13.5x    frame=33896 fps=323 q=-0.0 size=N/A time=00:23:33.74 bitrate=N/A speed=13.5x    frame=34052 fps=323 q=-0.0 size=N/A time=00:23:40.25 bitrate=N/A speed=13.5x    frame=34207 fps=323 q=-0.0 size=N/A time=00:23:46.71 bitrate=N/A speed=13.5x    frame=34344 fps=323 q=-0.0 size=N/A time=00:23:52.43 bitrate=N/A speed=13.5x    frame=34486 fps=323 q=-0.0 size=N/A time=00:23:58.35 bitrate=N/A speed=13.5x    frame=34661 fps=323 q=-0.0 size=N/A time=00:24:05.65 bitrate=N/A speed=13.5x    [Parsed_ssim_16 @ 0000020549f71c40] SSIM Y:0.994475 (22.576571) U:0.994284 (22.429046) V:0.993929 (22.167670) All:0.994352 (22.481156)
[out#0/null @ 000002053cea8a00] video:14903KiB audio:271276KiB subtitle:0KiB other streams:0KiB global headers:0KiB muxing overhead: unknown
frame=34683 fps=323 q=-0.0 Lsize=N/A time=00:24:06.57 bitrate=N/A speed=13.5x    
